<svg fill="none" xmlns="http://www.w3.org/2000/svg" viewBox="0 0 1214 332">
    <path d="M64 166H0v-64h.9a19 19 0 1 0 0-38H0V0h166v166h-64v.9a19 19 0 0 1-38 0z" fill="#fae573" />
    <path
        d="m63.5 51.7 1.3 9.6q.7-6.2 1.3-9.4l6.4-34.3h12.6L91.5 52q.8 4.6 1.4 9.5l1.3-9.7 5.3-34h12.3l-11 60.6H86l-6-31.6a92 92 0 0 1-1.3-8.6l-1.2 8.7-5.7 31.5h-15l-11-60.7h12.3zM133 35.8l6.3-18.2h13.1l-12.8 29.7 13.8 31h-13l-8-20-7.4 20h-13l14-31.5-13-29.2h12.7z"
        fill="#2b2827" />
    <path
        d="M0 166v166h166V166h-64v.9a19 19 0 0 1-38 0v-.9zm38.5 89.5h11l7.5 40h.2l9-40h10.3l8.2 40.5h.1l8.6-40.5h10.8l-14 58.7h-11l-8-40H71l-8.7 40H51.2zm78 0H134l17.3 58.7h-11.4l-3.7-13h-19.8l-2.9 13h-11zm6.7 14.5-4.8 21.5h15l-5.6-21.5z"
        fill="#654ff0" />
    <path
        d="M57 295.5h.2l9-40h10.3l8.2 40.5h.1l8.6-40.5h10.8l-14 58.7h-11l-8-40H71l-8.7 40H51.2l-12.7-58.7h11zm94.2 18.7h-11.4l-3.7-13h-19.8l-2.9 13h-11l14.2-58.7h17.3zm-28-44.2-4.8 21.5h15l-5.6-21.5z"
        fill="#fff" />
    <path
        d="M340.3 137h-24l-10-53.9q-2.2-11-3.3-26l-.5 5.2-3 21.1-9.7 53.6H266L247.3 34.2H266l9.3 58 3.5 27.4q1.8-18.9 3.3-27l11-58.4H313l11 58.4q2.2 13 3.5 27.1 2.4-20.8 3.5-27.5l9-58h18.9zm54.5 1.4q-14.8 0-23.2-10.4a46 46 0 0 1-8.5-29.6q0-19.4 7.7-30.3a25 25 0 0 1 21.4-10.9q12.7 0 20.2 9.3a41 41 0 0 1 7.3 26.1v10h-37.6q.3 10.5 4.3 15.6t11.3 5q9 0 18.7-5.6V133q-9 5.4-21.6 5.4M392 71.6q-3.9 0-6.6 4.3a28 28 0 0 0-3 13.1h19q-.2-8.5-2.6-13-2.5-4.5-6.8-4.4m75.5-14.4q10.7 0 16.8 10.6 6 10.5 6.1 29.9 0 19.5-6.2 30-6 10.7-17 10.7a19 19 0 0 1-9.3-2.2 23 23 0 0 1-7.6-8.1H449l-3.2 8.9H432V27.6h18.7v29l-1 12.3h1a24 24 0 0 1 7.5-9.1q4-2.6 9.2-2.6M461 73.1a8 8 0 0 0-7.7 5 48 48 0 0 0-2.5 17.6v1.9q0 13.5 2.4 19.2 2.5 5.5 8 5.5 10 0 10-24.9 0-24.3-10.2-24.3m92.3 63.9-5.9-26h-26.8l-5.9 26h-19L521 33.8h26L572.4 137zm-9.5-42.9-5.4-23.9-4.3-22.6q-.9 6-2.4 13.3-1.3 7.4-7.3 33.2zm78.7 19.9q0 11.5-6.7 18t-19.8 6.4q-11.6 0-19.2-4.6v-16.2a37 37 0 0 0 18.2 6.2q4.3 0 6.6-2.1a8 8 0 0 0 2.3-5.7 9 9 0 0 0-2.4-6.3q-2.4-2.7-8.8-6.5-8.5-5.1-12.2-10.8a25 25 0 0 1-3.7-13.5q0-10 6.8-15.9a28 28 0 0 1 18.9-5.8q10.5 0 19.6 5.5L616 76q-7.5-4-13.2-4-3.6 0-5.4 1.8a7 7 0 0 0-1.8 4.7q0 3.1 2.2 5.6a40 40 0 0 0 8.3 6.1q7.3 4.5 10.2 7.5a22 22 0 0 1 6.2 16.3m53.9 0q0 11.5-6.8 18-6.6 6.4-19.7 6.4-11.7 0-19.2-4.6v-16.2a37 37 0 0 0 18.1 6.2q4.4 0 6.6-2.1a8 8 0 0 0 2.4-5.7 9 9 0 0 0-2.4-6.3q-2.5-2.7-8.8-6.5-8.5-5.1-12.3-10.8a25 25 0 0 1-3.6-13.5q0-10 6.8-15.9a28 28 0 0 1 18.8-5.8q10.5 0 19.7 5.5L669.8 76q-7.5-4-13.2-4-3.6 0-5.4 1.8a7 7 0 0 0-1.7 4.7q0 3.1 2.1 5.6a40 40 0 0 0 8.3 6.1q7.3 4.5 10.3 7.5a22 22 0 0 1 6.2 16.3m40.6 24.4q-14.6 0-23.1-10.4a46 46 0 0 1-8.4-29.6q0-19.4 7.6-30.3a25 25 0 0 1 21.4-10.9q12.8 0 20.2 9.3a41 41 0 0 1 7.4 26.1v10h-37.7q.3 10.5 4.3 15.6t11.3 5q9 0 18.7-5.6V133q-9 5.4-21.6 5.4m-2.6-66.8q-4.1 0-6.7 4.3a28 28 0 0 0-3 13.1h19q-.1-8.5-2.6-13t-6.7-4.4M832.2 137V90.3q0-17.2-8.5-17.2-6.1 0-8.9 6.2-2.7 6-2.6 19.7v38h-18.9V90.3q0-17.2-8.6-17.2-6 0-8.8 6.1T773 99.4V137h-18.7V58.7h14.9l2.2 10h1.2q2.8-6 7.7-8.7 4.9-2.8 10.5-2.8 14.3 0 19 13.6h.8q6-13.6 19.2-13.6 10.5 0 15.7 7.3Q851 71.8 851 86v51zm69.4-79.8q10.7 0 16.8 10.6 6 10.5 6.1 29.9 0 19.5-6.2 30-6 10.7-17 10.7a19 19 0 0 1-9.3-2.2 23 23 0 0 1-7.6-8.1h-1.2L880 137h-13.8V27.6H885v29l-1 12.3h1a24 24 0 0 1 7.5-9.1q4-2.6 9.2-2.6M895 73.1a8 8 0 0 0-7.7 5 47 47 0 0 0-2.5 17.6v1.9q0 13.5 2.4 19.2 2.5 5.5 8 5.5 10 0 10-24.9 0-24.3-10.2-24.3m61.4 63.9h-18.7V27.6h18.7zm7.8-78.3h19.4l10.8 44.2q1.6 6 2.6 16.5h.4q0-1.6.7-6l.9-6.8 9.7-48h19.7l-22.5 84a49 49 0 0 1-10.8 22.2 24 24 0 0 1-18 6.8q-5.6 0-9.9-1.2v-15.7q2.9.9 6.5.9 9.4 0 12.3-12.4l1.4-5zM254.4 216.5 266 264q1.6 7 3.1 15.2 1.3-7.4 3.1-15.4l11.3-47.4.2-.8h8.8l-.3 1.2-22.3 90.7q-2.5 10.2-6.7 15.6a14 14 0 0 1-11.3 5.4q-2.9 0-6.4-1.3l-.6-.2v-8l1.3.5q2.7 1 5.1 1 3.7 0 5.9-3.3t4.2-11.3l3.3-13-19-75.8-.3-1.3h8.8zm67.5-2.3a20 20 0 0 1 18 10.9q6.2 10.6 6.2 29.6 0 19.4-6.2 30a20 20 0 0 1-18.2 10.7q-12 0-18-10.7t-6.1-30q0-19.9 6-30.1a20 20 0 0 1 18.3-10.4m47.4 52.3q.1 11.2 2.6 16a9 9 0 0 0 3.1 3.6 8 8 0 0 0 4.4 1.1q8 0 11.8-6.4 4-6.7 4-22.2v-42.9h8.5V294h-7.5l-.1-1-.6-8q-2.4 4.5-6 7.1a17 17 0 0 1-10.1 3.3q-9.7 0-14.4-7-4.4-7-4.3-22v-50.7h8.6zM470 214.2q7.3 0 12.3 2.8l.8.4-.4.8-2.6 6-.4.9-.9-.5q-4.6-2-8.2-2a12 12 0 0 0-6.8 1.9q-3 1.9-5 5.9a57 57 0 0 0-4 24.7q0 16.5 4 24.5 2 4 5 5.8 2.8 2 6.8 2 4.8 0 10.4-2.2l1.4-.5v7.6l-.5.3q-2.5 1.4-6 2-3.4.9-6 .8-12 0-18.2-10.4-6-10.3-5.9-29.8 0-19.6 6-30.2a20 20 0 0 1 18.2-10.8m42.3 0q9.8 0 14.4 6.4Q531 227 531 241v53h-7.4v-1l-.7-7.6a21 21 0 0 1-5.8 6.8 17 17 0 0 1-10.3 3.2q-8 0-12.8-6.3a27 27 0 0 1-4.7-16.6q0-11.2 6.8-18a28 28 0 0 1 19-7.1l7.3-.4v-5.4c0-7-1-12-2.6-15a8 8 0 0 0-3.1-3.4 10 10 0 0 0-4.8-1 24 24 0 0 0-12.9 4l-.9.6-.5-.9-2.9-5.3-.4-.8.8-.5q8.2-5 17.2-5m636.3 1.5h12v8h-12V275q-.1 3.8.4 6.3.3 2.6 1 3.7 1.4 2.3 5.1 2.3 3 0 5.2-.8l1.3-.4v7.6l-.6.3q-3.3 1.5-8.3 1.5a11 11 0 0 1-9.7-4.8 25 25 0 0 1-3.1-13.8v-53.2h-7V218l.8-.2 6.1-1.8 2.1-17.4.1-1h6.5zm43.2-1.5q10.1 0 15.9 9.6a48 48 0 0 1 5.6 24.8v7.2h-36.1a52 52 0 0 0 4.5 23.5 15 15 0 0 0 5.4 5.8q3.3 2 7.6 2 7 0 14.6-4.6l1.5-.9v8.8l-.4.3q-7.6 4.7-16 4.7-12.6 0-19.4-10.7a55 55 0 0 1-6.7-29.3q0-19.7 6-30.3 6-10.8 17.5-10.9m-618.4 0q9.4 0 14.1 6.4 4.8 6.3 4.7 19.7V294h-8.6v-53.6q0-9.4-2.7-13.7a8 8 0 0 0-7.6-4.3q-8 0-11.7 6.6a48 48 0 0 0-3.8 22v43H549v-78.3h7.6v1l.4 7.8a20 20 0 0 1 6.1-7q4.8-3.2 10.2-3.3m421 2.3 9.6 44.4 3.5 18.6q1.2-8.4 3.4-18.7l9.5-44.3.2-.8h8.6l.2.8 9.6 44.4.1.7q1 4.6 3.1 17.7l1.3-6.8 1 .2-1-.2q1.9-9.5 12-56l.1-.8h8.7l-.3 1.2-17.2 76.3-.1.8h-9.5l-.2-.8-10.5-51.7-.3-1.2-1.3-8v.5l-1.7 8.7-10.9 51.7-.1.8h-9.6l-.2-.8-16.6-76.3-.2-1.2h8.7zm101.4-2.3q3.7 0 7 1l.9.3-.2 1-1.7 6.6-.2 1.2-1.1-.5q-2.4-1-4.8-1-3.3 0-6.5 3.7t-5 10.6a60 60 0 0 0-1.9 15.5V294h-8.7v-78.3h7.5v1l.5 9.8q5.2-12.2 14.2-12.3m25.9 79.8h-8.7v-78.3h8.7zm-606.2-38.9q-9 .5-13 4.8-4.2 4.1-4.2 12.8 0 8 2.7 11.5a9 9 0 0 0 7.3 3.5q6.5.1 10.2-6.5 3.9-6.7 3.9-19.6v-6.9zm-193.7-32.5q-4 0-6.8 1.9a14 14 0 0 0-4.7 5.8 61 61 0 0 0-3.7 24.4q0 16.4 3.8 24.5 1.9 4 4.7 6 2.7 1.8 6.7 1.9 3.8 0 6.6-2 2.8-1.8 4.8-5.8 4-8 4-24.6 0-16.5-4-24.4-2-4-4.8-5.8-2.8-2-6.6-2m869.6-.3q-6.3 0-9.8 6.3a47 47 0 0 0-4.2 19.2h27.2q0-11.8-3.7-18.6-3.7-7.1-9.5-7m-73.7-34.4q2.5 0 3.8 2.2 1.4 2.1 1.3 5.4t-1.3 5.4a4 4 0 0 1-3.8 2.3 5 5 0 0 1-4.2-2.2 9 9 0 0 1-1.5-5.5q0-3.3 1.5-5.5a5 5 0 0 1 4.2-2.1"
        fill="#2b2827" />
    <path
        d="M938.2 261.6q0 5.3-.2 10.4l2.7-7 20.3-49 .5-1.3h11.3l-1.2 2.8-39.5 93.4a43 43 0 0 1-8.6 14.3 16 16 0 0 1-11.4 4.4q-3.6 0-7-1.5l-1.3-.5v-10.4l2.8 1.2q2.1 1 5.4 1 2.8 0 5-2.5 2.4-2.5 6.3-11.6l4.8-11.6-.5-77v-2h10.6zm-270.5-48.4q5.3 0 9 3.2 1.9 1.6 3.2 4l1.2-4.3.5-1.4h9.6l-.6 2.4-16 76.3-.4 1.6H665l.3-2.2.4-4.2q-6.7 7.6-15 7.8a14 14 0 0 1-12.2-5.8 28 28 0 0 1-4-16q0-15 4.5-29.7a62 62 0 0 1 11.8-23q7.5-8.5 16.9-8.7m58 0q6.4 0 11.2 2.6l1.5 1-.7 1.6-2.8 6-.8 2-2-1a14 14 0 0 0-7-1.8q-5.2-.2-10.2 6a54 54 0 0 0-8.5 18.8 92 92 0 0 0-3.4 24.3q.1 7.5 2.4 10.6 2.1 3 6.8 3a21 21 0 0 0 9.2-2.5l2.9-1.5v10.5l-1 .6q-5.8 3-12.4 3-9 .1-14-6.4h-.1a28 28 0 0 1-4.7-17.5q0-15.5 4.5-29.6t12-21.8 17.1-7.9m34.1-14.2-3.3 15.7h10l-.5 2.4-1.2 6-.4 1.5h-10l-10.8 50.7q-1 4.4-1 7 .1 2.8.7 3.3.4.5 2.2.6t4-.7l2.6-1v10l-1.3.4a24 24 0 0 1-8 1.5q-5.2.1-8.3-3.4a14 14 0 0 1-2.7-9.2q0-3 1-7.5l11-51.7h-7l.6-2.4.8-4 .3-1.1 1.1-.3 6.2-1.7 5.3-17.1.4-1.4h8.8zm25.4 18.1-11.4 53.1q-1.2 5.4-1.2 9 0 4 1.2 5.4 1 1.3 3.4 1.3 6.2.1 11-6.5a58 58 0 0 0 8-21.2l8.9-42 .3-1.5h10.7l-.5 2.4-16.3 76.3-.3 1.6h-9l.2-2.1.2-3.5q-6.3 7-14.7 7-6.5 0-10.2-4.2a18 18 0 0 1-3.4-11.7q0-5.9 1.5-12.1l11-52.1.4-1.6h10.7zm65-3.9q5.3 0 9 3.2 2 1.6 3.2 4l1.3-4.3.4-1.4h9.6l-.5 2.4-16.1 76.3-.4 1.6h-9.2l.3-2.2.5-4.2q-6.7 7.6-15.1 7.8a14 14 0 0 1-12.2-5.8 28 28 0 0 1-3.9-16q0-15 4.5-29.7a62 62 0 0 1 11.8-23q7.4-8.5 16.8-8.7m55-29.2L882 293.4l-.3 1.6H871l.5-2.4 23.2-109.4.4-1.6h10.8zm24.4 0-23.4 109.4-.3 1.6h-10.7l.5-2.4L919 183.2l.3-1.6h10.8zm-262.2 39.6c-3.2 0-6.3 1.7-9.6 6l-.3.3a60 60 0 0 0-8.5 20.2q-3.5 13.5-3.5 25.5 0 6 1.5 8.7c.9 1.4 2.3 2.3 5 2.3q5 .1 10.2-6.5a62 62 0 0 0 9-20.7 100 100 0 0 0 3.7-26q-.1-5.4-2-7.5h-.1q-1.8-2.3-5.4-2.3m182.5 0c-3.1 0-6.3 1.7-9.5 6l-.3.3a60 60 0 0 0-8.6 20.2q-3.5 13.5-3.5 25.5 0 6 1.6 8.7 1 2.2 5 2.3 5 .1 10.1-6.5a62 62 0 0 0 9-20.7 100 100 0 0 0 3.7-26q-.1-5.4-2-7.5-1.9-2.3-5.5-2.3"
        fill="#654ff0" />
</svg>