<svg fill="none" xmlns="http://www.w3.org/2000/svg" viewBox="0 0 1196 324">
    <path
        d="M60.16 156H0V95.84l.84.03a17.88 17.88 0 1 0 0-35.77q-.42 0-.84.04V0h156v156H95.86l.04.84a17.89 17.89 0 0 1-35.78 0z"
        fill="#fae573" />
    <path d="M0 156v156h156V156H95.85q.04.42.04.84a17.89 17.89 0 0 1-35.78 0l.04-.84z" fill="#654ff0" />
    <path
        d="M59.68 48.55q.5 3.26 1.23 9.07.63-5.8 1.22-8.87l6.04-32.17h11.82l6.04 32.18q.73 4.38 1.27 8.96.81-6.56 1.26-9.18l4.92-31.96h11.58L94.8 73.56H80.77l-5.54-29.7q-.77-3.65-1.26-8.06l-1.12 8.17V44l-5.4 29.56H53.43L43.1 16.58h11.5zm65.29-14.86 5.94-17.11h12.3l-12.04 27.84 13.01 29.14h-12.22l-7.5-18.8-6.95 18.8h-12.23l13-29.6-12.05-27.38h11.87z"
        fill="#2b2827" />
    <path
        d="m236.43 210.48 11.53 47.6q1.64 6.9 3.19 15.21 1.22-7.44 3.09-15.35l11.25-47.46.18-.77h8.82l-.3 1.24-22.3 90.7c-1.65 6.77-3.85 11.97-6.65 15.5a13.7 13.7 0 0 1-11.33 5.44q-2.9-.01-6.38-1.25l-.67-.23v-8.17l1.33.47q2.67.93 5.15.93a6.7 6.7 0 0 0 5.85-3.22c1.54-2.24 2.96-5.96 4.22-11.27v-.01l3.32-12.98-19-75.9-.3-1.25h8.81zm67.5-2.25c7.71 0 13.72 3.67 17.95 10.83 4.21 7.1 6.26 17.02 6.26 29.62 0 12.92-2.05 22.98-6.26 30.04-4.2 7.08-10.3 10.69-18.22 10.69-7.84 0-13.87-3.61-18.02-10.7-4.07-7.06-6.05-17.11-6.05-30.03 0-13.22 1.95-23.3 5.98-30.1 4.07-6.88 10.24-10.35 18.37-10.35m47.41 52.26c0 7.51.9 12.82 2.56 16.07a9 9 0 0 0 3.1 3.5 8 8 0 0 0 4.38 1.16c5.44 0 9.32-2.16 11.8-6.46 2.57-4.45 3.94-11.78 3.94-22.14v-42.9h8.6V288h-7.54l-.08-.92-.63-8a21 21 0 0 1-6 7.04h-.02a17 17 0 0 1-10.07 3.29c-6.4 0-11.25-2.3-14.33-7-2.98-4.61-4.39-11.98-4.39-21.92v-50.78h8.68zm100.68-52.26q7.28 0 12.3 2.73l.8.44-.38.84-2.6 5.9-.4.94-.93-.43q-4.57-2.1-8.23-2.09-3.93.01-6.8 1.93a15 15 0 0 0-4.91 5.9c-2.7 5.39-4.1 13.58-4.1 24.71 0 11.04 1.4 19.16 4.1 24.5a15 15 0 0 0 4.9 5.85 12 12 0 0 0 6.8 1.9q4.77.02 10.48-2.17l1.36-.53v7.68l-.53.28q-2.49 1.35-5.96 2.07-3.44.73-6.05.73c-8 0-14.08-3.5-18.15-10.41-3.98-6.89-5.9-16.84-5.9-29.76 0-13.1 1.94-23.22 5.96-30.24 4.11-7.14 10.22-10.77 18.24-10.77m42.25 0c6.5 0 11.38 2.08 14.4 6.4 2.94 4.2 4.32 11.08 4.32 20.4V288h-7.4l-.08-.92-.6-7.64a21 21 0 0 1-5.83 6.75 17 17 0 0 1-10.3 3.22c-5.27 0-9.57-2.12-12.8-6.3h-.01c-3.17-4.22-4.7-9.77-4.7-16.57 0-7.48 2.25-13.5 6.84-17.95 4.58-4.47 10.95-6.85 19-7.24l7.27-.37v-5.38c0-7.08-.9-12.05-2.55-15.06a8 8 0 0 0-3.15-3.3 10 10 0 0 0-4.83-1.1c-4.13 0-8.4 1.35-12.83 4.14l-.9.56-.5-.93-2.89-5.27-.45-.83.8-.5a32 32 0 0 1 17.2-5.08m636.28 1.48h12.09v7.9h-12.09v51.25q0 3.82.41 6.34t1.13 3.7c.89 1.48 2.47 2.32 5.05 2.32q2.96 0 5.15-.79l1.33-.47v7.68l-.58.27q-3.37 1.51-8.36 1.5c-4.23 0-7.51-1.6-9.69-4.86-2.13-3.18-3.12-7.83-3.12-13.8v-53.13H1115v-5.69l.72-.21 6.11-1.78 2.1-17.49.11-.88h6.53zm43.29-1.48c6.73 0 12.02 3.25 15.83 9.55 3.79 6.22 5.63 14.53 5.63 24.85v7.19h-36.12c.17 10.54 1.73 18.33 4.57 23.48a15 15 0 0 0 5.39 5.85 14.5 14.5 0 0 0 7.59 1.93q6.83.02 14.6-4.57l1.51-.9v8.78l-.47.3a29.6 29.6 0 0 1-15.92 4.72c-8.41 0-14.94-3.6-19.48-10.73h-.01c-4.45-7.12-6.62-16.92-6.62-29.3 0-13.1 1.93-23.24 5.9-30.3 4.05-7.17 9.94-10.85 17.6-10.85m-618.4 0c6.16 0 10.92 2.1 14.1 6.39 3.15 4.2 4.62 10.82 4.62 19.65V288h-8.6v-53.6c0-6.26-.94-10.79-2.68-13.72-1.69-2.86-4.17-4.26-7.58-4.26-5.37 0-9.22 2.2-11.7 6.59-2.5 4.5-3.82 11.81-3.82 22.08V288h-8.68v-78.29h7.57l.06.95.41 7.88a20 20 0 0 1 6.1-6.96 17.4 17.4 0 0 1 10.2-3.35m421.03 2.27 9.5 44.44v.02l3.53 18.52q1.26-8.38 3.44-18.68l9.49-44.3.17-.79h8.65l.17.8 9.56 44.42.14.68q1 4.67 3.09 17.66.49-2.75 1.28-6.78v-.01l.98.2-.98-.2q1.9-9.36 11.95-55.98l.17-.79h8.67l-.27 1.22-17.16 76.29-.18.78h-9.49l-.16-.8-10.55-51.68-.27-1.18-.02-.05v-.05q-.05-.44-1.26-7.86l-.07.38v.02l-1.62 8.72v.03l-10.9 51.68-.17.79h-9.56l-.17-.79-16.6-76.29-.26-1.2h8.73zm101.33-2.27q3.72 0 6.98 1.04l.89.28-.22.9-1.62 6.68-.27 1.14-1.09-.45a12 12 0 0 0-4.81-.98c-2.19 0-4.35 1.13-6.48 3.66q-3.13 3.69-5 10.65a60 60 0 0 0-1.87 15.42V288h-8.68v-78.29h7.44l.05.95.52 9.89c3.48-7.96 8.14-12.32 14.16-12.32m25.89 79.77h-8.68v-78.29h8.68zm-606.2-38.88c-6 .32-10.28 1.98-13.05 4.83-2.7 2.8-4.14 6.98-4.14 12.73 0 5.45.97 9.24 2.75 11.56a8.6 8.6 0 0 0 7.22 3.47c4.36 0 7.76-2.1 10.23-6.52 2.56-4.52 3.88-11 3.88-19.55v-6.89zm-193.7-32.56q-4.02.01-6.84 1.9a13.7 13.7 0 0 0-4.7 5.82c-2.43 5.34-3.7 13.43-3.7 24.4s1.32 19.11 3.85 24.54q1.88 4.02 4.7 5.92a11.5 11.5 0 0 0 6.7 1.94q3.82 0 6.6-1.92 2.82-1.88 4.79-5.87c2.63-5.36 3.99-13.53 3.99-24.61 0-10.99-1.37-19.08-4-24.4q-1.95-3.94-4.78-5.82a11.5 11.5 0 0 0-6.6-1.9m869.63-.28c-4.17 0-7.42 2.04-9.79 6.36q-3.5 6.29-4.27 19.13h27.26q-.16-11.72-3.75-18.58c-2.42-4.75-5.57-6.9-9.45-6.9m-73.76-34.41c1.65 0 2.96.8 3.87 2.22.89 1.4 1.28 3.25 1.28 5.46 0 2.13-.39 3.94-1.27 5.37l-.01.01a4.4 4.4 0 0 1-3.87 2.23c-1.7 0-3.11-.76-4.17-2.16l-.01-.01-.01-.02c-1-1.44-1.45-3.28-1.45-5.42 0-2.23.45-4.1 1.46-5.5l.01-.03a5 5 0 0 1 4.17-2.15M976.41 94.9q1.6 5.9 2.6 16.52h.42q.07-1.68.63-5.98.56-4.35.92-6.81.35-2.47 9.7-47.96h19.69l-22.43 83.96q-4.08 15.45-10.83 22.21-6.75 6.75-18 6.75-5.55 0-9.91-1.2v-15.67q2.88.84 6.46.84 9.43 0 12.38-12.37l1.34-4.92-23.2-79.6h19.4zM374.18 49.2q12.8 0 20.18 9.35 7.38 9.27 7.38 26.08v9.99h-37.62q.21 10.48 4.3 15.6 4.07 5.07 11.24 5.07 9.15 0 18.7-5.7V125q-9 5.42-21.58 5.42-14.7 0-23.2-10.41-8.44-10.47-8.44-29.6 0-19.41 7.67-30.3t21.37-10.9m58.64-4.01q0 1.62-.07 3.37-.07 1.76-.91 12.3h.98q3.45-6.46 7.45-9.06a16.5 16.5 0 0 1 9.21-2.6q10.7 0 16.8 10.61 6.13 10.62 6.13 29.89 0 19.47-6.2 30.09-6.1 10.62-17 10.62-5.28 0-9.36-2.25-4-2.33-7.6-8.09h-1.19L427.9 129h-13.78V19.6h18.7zm151.66 4q10.41 0 19.62 5.49l-6.12 13.43q-7.52-4.08-13.21-4.08-3.6 0-5.42 1.9a6.6 6.6 0 0 0-1.76 4.64q0 3.16 2.18 5.63 2.25 2.46 8.3 6.11 7.32 4.43 10.27 7.53 2.95 3.09 4.57 7.03a24 24 0 0 1 1.61 9.2q0 11.48-6.75 17.94-6.68 6.4-19.75 6.4-11.61 0-19.2-4.57V109.6a37 37 0 0 0 9 4.43 29 29 0 0 0 9.14 1.76q4.36 0 6.61-2.1a7.5 7.5 0 0 0 2.32-5.7q0-3.6-2.39-6.26-2.4-2.67-8.79-6.54-8.5-5.06-12.23-10.76-3.66-5.77-3.66-13.57 0-9.98 6.82-15.82 6.9-5.83 18.84-5.83m53.86 0q10.41 0 19.62 5.49l-6.12 13.43q-7.52-4.08-13.22-4.08-3.59 0-5.4 1.9a6.6 6.6 0 0 0-1.77 4.64q0 3.16 2.18 5.63 2.25 2.46 8.3 6.11 7.32 4.43 10.27 7.53 2.95 3.09 4.57 7.03a24 24 0 0 1 1.61 9.2q0 11.48-6.75 17.94-6.68 6.4-19.75 6.4-11.61 0-19.2-4.57v-16.25a37 37 0 0 0 9 4.43 29 29 0 0 0 9.14 1.76q4.36 0 6.61-2.1a7.5 7.5 0 0 0 2.32-5.7q0-3.6-2.4-6.26-2.37-2.67-8.78-6.54-8.5-5.06-12.23-10.76-3.66-5.77-3.66-13.57 0-9.98 6.82-15.82 6.9-5.83 18.84-5.83m58.15 0q12.8 0 20.18 9.36 7.38 9.27 7.38 26.08v9.99h-37.61q.21 10.48 4.29 15.6 4.08 5.07 11.25 5.07 9.13 0 18.7-5.7V125q-9 5.42-21.59 5.42-14.7 0-23.2-10.41-8.44-10.47-8.44-29.6 0-19.41 7.67-30.3 7.65-10.9 21.37-10.9m170.44-4q0 1.62-.07 3.37-.07 1.76-.91 12.3h.98q3.45-6.46 7.45-9.06a16.5 16.5 0 0 1 9.21-2.6q10.7 0 16.8 10.61 6.13 10.62 6.13 29.89 0 19.47-6.2 30.09-6.1 10.62-17 10.62-5.28 0-9.36-2.25-4-2.33-7.6-8.09h-1.19l-3.16 8.93h-13.78V19.6h18.7zM257.25 84.2q1.35 8.72 3.59 27.35 1.75-18.84 3.3-26.93l10.97-58.43h19.83l10.97 58.43q2.18 13.01 3.44 27.07 2.46-20.81 3.59-27.49l8.93-58h18.91L322.28 129h-23.9l-10.05-53.86q-2.32-11.03-3.3-26.09l-.57 5.2-2.88 21.17L271.8 129h-23.9L229.27 26.2h18.77zM554.53 129h-19.2l-5.9-25.94h-26.79l-5.9 25.94H477.6l25.45-103.22H529zm257.35-79.8q10.4 0 15.75 7.3 5.4 7.32 5.4 21.38V129H814.2V82.31q0-17.22-8.51-17.22-6.2 0-8.86 6.18-2.67 6.11-2.67 19.7V129H775.3V82.31q0-17.22-8.65-17.22-6.05 0-8.78 6.11-2.75 6.11-2.75 20.18V129h-18.7V50.67h14.84l2.25 10.06h1.2q2.8-5.99 7.65-8.72a21 21 0 0 1 10.48-2.81q14.34 0 19.13 13.57h.7q5.97-13.57 19.2-13.57m126.5 79.8h-18.7V19.6h18.7zM443.02 65.09q-5.35 0-7.74 4.99-2.32 5-2.46 17.58v1.9q0 13.64 2.4 19.19 2.45 5.56 7.94 5.56 10.12 0 10.12-24.9 0-24.32-10.26-24.32m434.1 0q-5.34 0-7.73 4.99-2.32 5-2.46 17.58v1.9q0 13.64 2.39 19.19 2.46 5.56 7.95 5.56 10.12 0 10.12-24.9 0-24.32-10.26-24.32M516.08 39.56q-.9 6.05-2.32 13.36-1.4 7.25-7.31 33.19h19.4l-5.48-23.9q-.5-2.2-2.25-10.9-1.69-8.8-2.04-11.75M374.04 63.61q-4.01 0-6.61 4.29-2.6 4.22-3.02 13.15h18.98q-.14-8.58-2.6-13.01-2.47-4.43-6.75-4.43m322.31 0q-4 0-6.6 4.29-2.61 4.22-3.03 13.15h18.98q-.15-8.58-2.6-13.01t-6.75-4.43"
        fill="#2b2827" />
    <path
        d="M920.19 255.64q0 5.18-.18 10.38a231 231 0 0 1 2.73-7l20.76-50.3h11.31l-40.69 96.21c-2.74 6.54-5.6 11.38-8.62 14.25a16 16 0 0 1-11.36 4.41q-3.67 0-7.12-1.5l-1.2-.52v-10.4l2.79 1.2c1.42.62 3.2.97 5.39.97 1.9 0 3.52-.74 4.96-2.4l.01-.02.02-.02c1.58-1.74 3.7-5.51 6.32-11.61l4.83-11.56-.58-79.02h10.63zm-270.53-48.4c3.54 0 6.62 1 9.08 3.12a14 14 0 0 1 3.15 3.94l1.69-5.59h9.57L656.21 289H647l.73-6.36c-4.5 5.02-9.5 7.77-15.08 7.77-5.22 0-9.4-1.88-12.18-5.8-2.7-3.8-3.88-9.25-3.88-16.03q0-15 4.44-29.69c3-9.78 6.92-17.5 11.8-23.03 4.96-5.6 10.58-8.63 16.83-8.63m58.08 0c4.28 0 8.02.81 11.12 2.58l1.58.9-4.38 9.67-1.9-1.03a14.3 14.3 0 0 0-6.98-1.8c-3.5 0-6.95 1.82-10.32 6.07-3.33 4.25-6.19 10.46-8.5 18.75a92 92 0 0 0-3.37 24.3c0 5.05.92 8.47 2.44 10.6 1.43 2 3.58 3.08 6.81 3.08 2.54 0 5.58-.81 9.16-2.6l2.9-1.45v10.48l-1.06.57a26 26 0 0 1-12.33 3.05c-5.96 0-10.76-2.09-14.1-6.4h-.01c-3.23-4.24-4.7-10.15-4.7-17.46q0-15.56 4.53-29.65c3-9.4 6.95-16.73 11.93-21.81 5-5.15 10.75-7.85 17.18-7.85m30.74 1.47h10.06l-2.13 9.9h-10.05l-10.77 50.66v.02a34 34 0 0 0-.94 7.02c0 1.9.34 2.85.65 3.28.3.3.9.63 2.2.63q1.79.01 4-.74l2.64-.9v9.83l-1.33.47q-4.2 1.51-8.05 1.53c-3.39 0-6.26-1.03-8.23-3.37-1.92-2.28-2.7-5.48-2.7-9.25q.01-2.99.95-7.44l10.96-51.73h-6.9l1.62-7.55 7.35-2 5.74-18.5h8.8zm17.34 55.5v.04a41 41 0 0 0-1.22 9.04c0 2.68.52 4.33 1.24 5.27.64.84 1.64 1.38 3.37 1.38 4.1 0 7.74-2 10.94-6.5 3.25-4.56 5.95-11.58 7.99-21.24l9.26-43.49h10.7L781.01 289h-8.94l.32-5.56c-4.2 4.53-9.11 6.97-14.73 6.97-4.26 0-7.78-1.3-10.18-4.2-2.35-2.84-3.35-6.86-3.35-11.73q.01-5.8 1.46-12.12l11.44-53.65h10.7zm76.38-56.98c3.53 0 6.6 1 9.07 3.13q1.88 1.62 3.15 3.94l1.69-5.59h9.57L838.74 289h-9.21l.73-6.36c-4.5 5.02-9.5 7.77-15.08 7.77-5.22 0-9.4-1.88-12.18-5.8-2.7-3.8-3.88-9.25-3.88-16.03q0-15 4.44-29.69c3-9.78 6.92-17.5 11.8-23.03 4.96-5.6 10.58-8.63 16.84-8.63M863.56 289h-10.7l24.12-113.4h10.77zm24.32 0h-10.7l24.13-113.4h10.77zm-238.5-71.44c-3.14 0-6.33 1.74-9.54 5.94l-.31.43c-3.3 4.44-6.17 11.12-8.53 20.2q-3.53 13.56-3.52 25.43c0 4.12.6 6.95 1.56 8.72.82 1.41 2.27 2.29 4.94 2.29 3.35 0 6.76-1.9 10.22-6.51 3.44-4.59 6.45-11.44 8.95-20.7q3.73-13.85 3.73-25.99c0-3.64-.8-6.02-2.05-7.48l-.02-.02-.02-.02c-1.2-1.47-2.9-2.29-5.4-2.29m182.53 0c-3.14 0-6.33 1.74-9.53 5.94l-.32.43c-3.3 4.44-6.17 11.12-8.53 20.2Q810 257.68 810 269.55c0 4.12.6 6.95 1.57 8.72.81 1.41 2.26 2.29 4.94 2.29 3.34 0 6.75-1.9 10.2-6.51 3.45-4.59 6.46-11.44 8.96-20.7q3.74-13.85 3.73-25.99c0-3.64-.8-6.02-2.05-7.48l-.02-.02-.02-.02c-1.2-1.47-2.9-2.29-5.4-2.29"
        fill="#654ff0" />
    <path
        d="M53.6 277.67h.13l8.52-37.6h9.67l7.66 38.07h.13l8.07-38.06H97.9L84.74 295.3H74.48l-7.6-37.6h-.13l-8.2 37.6H48.1l-11.9-55.22h10.33zm88.52 17.63H131.4l-3.53-12.29H109.3l-2.7 12.3H96.2l13.37-55.23h16.3zm-26.34-41.6-4.5 20.26h14.03l-5.18-20.27z"
        fill="#fff" />
</svg>